<?xml version="1.0" encoding="iso-8859-1"?>
<!-- Generator: Adobe Illustrator 22.0.0, SVG Export Plug-In . SVG Version: 6.00 Build 0)  -->
<svg xmlns="http://www.w3.org/2000/svg" xmlns:xlink="http://www.w3.org/1999/xlink" version="1.1" id="Layer_1_1_" x="0px" y="0px" viewBox="0 0 48 48" style="enable-background:new 0 0 48 48;" xml:space="preserve">
<g>
</g>
<circle style="fill:#6D4C41;" cx="24" cy="24" r="19"/>
<circle style="fill:#8D6E63;" cx="18" cy="24" r="1"/>
<circle style="fill:#8D6E63;" cx="17.5" cy="18.5" r="1.5"/>
<circle style="fill:#8D6E63;" cx="20" cy="14" r="1"/>
<circle style="fill:#8D6E63;" cx="18" cy="9" r="1"/>
<circle style="fill:#8D6E63;" cx="22.5" cy="8.5" r="1.5"/>
<circle style="fill:#8D6E63;" cx="27" cy="10" r="1"/>
<circle style="fill:#8D6E63;" cx="23.5" cy="19.5" r="1.5"/>
<circle style="fill:#8D6E63;" cx="18.5" cy="28.5" r="1.5"/>
<circle style="fill:#8D6E63;" cx="22.5" cy="25.5" r="1.5"/>
<circle style="fill:#8D6E63;" cx="28.5" cy="16.5" r="1.5"/>
<circle style="fill:#8D6E63;" cx="32" cy="20" r="1"/>
<circle style="fill:#8D6E63;" cx="30" cy="30" r="1"/>
<circle style="fill:#8D6E63;" cx="27.5" cy="23.5" r="1.5"/>
<circle style="fill:#8D6E63;" cx="26.5" cy="39.5" r="1.5"/>
<circle style="fill:#8D6E63;" cx="22" cy="40" r="1"/>
<circle style="fill:#8D6E63;" cx="19.5" cy="33.5" r="1.5"/>
<circle style="fill:#8D6E63;" cx="25.5" cy="29.5" r="1.5"/>
<circle style="fill:#8D6E63;" cx="24.5" cy="34.5" r="1.5"/>
<circle style="fill:#8D6E63;" cx="29.5" cy="35.5" r="1.5"/>
<circle style="fill:#8D6E63;" cx="24.5" cy="13.5" r="1.5"/>
<circle style="fill:#8D6E63;" cx="30" cy="8" r="1"/>
<circle style="fill:#8D6E63;" cx="16.5" cy="37.5" r="1.5"/>
<circle style="fill:#795548;" cx="13.5" cy="12.5" r="1.5"/>
<circle style="fill:#795548;" cx="8" cy="22" r="1"/>
<circle style="fill:#795548;" cx="11.5" cy="17.5" r="1.5"/>
<circle style="fill:#795548;" cx="13" cy="25" r="1"/>
<circle style="fill:#795548;" cx="33.5" cy="12.5" r="1.5"/>
<circle style="fill:#795548;" cx="33.5" cy="26.5" r="1.5"/>
<circle style="fill:#795548;" cx="38" cy="16" r="1"/>
<circle style="fill:#795548;" cx="39.5" cy="21.5" r="1.5"/>
<circle style="fill:#795548;" cx="37.5" cy="30.5" r="1.5"/>
<circle style="fill:#795548;" cx="33.5" cy="37.5" r="1.5"/>
<circle style="fill:#795548;" cx="9.5" cy="29.5" r="1.5"/>
<circle style="fill:#795548;" cx="12.5" cy="34.5" r="1.5"/>
</svg>
