<?xml version="1.0" encoding="iso-8859-1"?>
<!-- Generator: Adobe Illustrator 22.0.0, SVG Export Plug-In . SVG Version: 6.00 Build 0)  -->
<svg xmlns="http://www.w3.org/2000/svg" xmlns:xlink="http://www.w3.org/1999/xlink" version="1.1" id="Layer_1_1_" x="0px" y="0px" viewBox="0 0 48 48" style="enable-background:new 0 0 48 48;" xml:space="preserve">
<g>
</g>
<path style="fill:#1976D2;" d="M35.633,39H12.367c3.216,2.498,7.245,4,11.633,4S32.417,41.498,35.633,39z"/>
<path style="fill:#1565C0;" d="M10.17,37c0.68,0.723,1.413,1.391,2.198,2h23.266c0.785-0.609,1.518-1.277,2.198-2H10.17z"/>
<path style="fill:#64B5F6;" d="M24,38c0-0.552-0.448-1-1-1H10.17c0.68,0.723,1.413,1.391,2.198,2H23C23.552,39,24,38.552,24,38z"/>
<path style="fill:#1976D2;" d="M7.266,33c0.788,1.463,1.774,2.799,2.904,4H37.83c1.129-1.201,2.115-2.537,2.904-4H7.266z"/>
<path style="fill:#1E88E5;" d="M5,24c0,3.257,0.822,6.321,2.266,9h33.468C42.178,30.321,43,27.257,43,24  c0-2.099-0.354-4.112-0.982-6H5.982C5.354,19.888,5,21.901,5,24z"/>
<path style="fill:#64B5F6;" d="M27,33h-2c-0.55,0-1-0.45-1-1v0c0-0.55,0.45-1,1-1h2c0.55,0,1,0.45,1,1v0C28,32.55,27.55,33,27,33z"/>
<path style="fill:#64B5F6;" d="M23,25v2l19.763,0.001c0.104-0.656,0.174-1.323,0.209-2L23,25z"/>
<path style="fill:#1976D2;" d="M7.266,15c-0.513,0.952-0.937,1.959-1.284,3h36.035c-0.347-1.041-0.77-2.048-1.284-3H7.266z"/>
<path style="fill:#1565C0;" d="M40.734,15c-0.788-1.463-1.774-2.799-2.904-4H10.17c-1.129,1.201-2.115,2.537-2.904,4H40.734z"/>
<path style="fill:#64B5F6;" d="M10.17,11H37.83c-0.68-0.723-1.413-1.391-2.198-2H12.367C11.583,9.609,10.849,10.277,10.17,11z"/>
<path style="fill:#1976D2;" d="M12.367,9h23.266C32.417,6.502,28.388,5,24,5S15.583,6.502,12.367,9z"/>
<ellipse style="fill:#1565C0;" cx="23" cy="26" rx="7" ry="3"/>
<ellipse style="fill:#0D47A1;" cx="23" cy="26" rx="4" ry="1"/>
</svg>
