<?xml version="1.0" encoding="utf-8"?>
<!-- Generator: Adobe Illustrator 21.0.2, SVG Export Plug-In . SVG Version: 6.00 Build 0)  -->
<svg xmlns="http://www.w3.org/2000/svg" xmlns:xlink="http://www.w3.org/1999/xlink" version="1.1" id="Layer_1_1_" x="0px" y="0px" viewBox="0 0 48 48" style="enable-background:new 0 0 48 48;" xml:space="preserve">
<circle style="fill:#1565C0;" cx="24" cy="24" r="20"/>
<path style="fill:#43A047;" d="M32.3,14.5L30.3,16c-0.3,0.3-0.4,0.7-0.3,1.1l0.9,1.1c0.1,0.4-0.1,0.9-0.5,1.1  c-0.5,0.3-1.7,0.9-1.7,1.2c0,0.7,0.5,2.4,0.9,2.4c3.1,0,1.2-1.4,3.4-2.8c1.3-0.8,3.4-1.2,3.9-1.2h2v14h-7c0,0,1.2,1.9,2.3,4  c0.5,1,1.7,3,1.7,3c5.1-3.9,8-9.8,8-16c0-6.4-3.1-12.2-7.8-15.8l-2.9,5.1C33,13.8,32.7,14.2,32.3,14.5z"/>
<path style="fill:#43A047;" d="M14.1,25c0.9,0,0.9-0.8,0.9-2c0-1.2-0.2-3,3-3c1.3,0,3,0,3-2c0-0.8,0-4,0-5c0-0.3-0.1-1.6-2.1-1.6  c-1.7,0-3-0.3-3-1.5c0-0.9,0.7-3,2.1-4.9C10.6,7.3,5.2,13.7,4.2,21.5L4,23c2.2,0,7.8,0,8,0C13.5,23,13.2,25,14.1,25z"/>
<path style="fill:#43A047;" d="M23,31c-1.2,0-2,0-3.4-1.7C19,28.7,18.1,28,17.4,28s-1.6,0-1.6,0H15l-1,1l2,7v6.3c1,0.4,2,0.8,3,1.1  c0.4-3.1,2.8-6.8,3-7.4c0.2-0.4,1-2.3,1-2.3S23,31,23,31z"/>
<path style="fill:#7CB342;" d="M37,19c0,0,1,1,1,4c0,1-2,2-5,2c-5,0-5,2.9-5,4c0,3.6,4,4,4,4s4,0,7,4c0,0,0.1,0.1,0.1,0.1  C42.1,33.6,44,29,44,24c0-3.4-0.9-6.7-2.4-9.5L41.3,14H41C38,14,38.3,18,37,19z"/>
<path style="fill:#7CB342;" d="M6,24c0.6,1.2,2.1,2.3,3.3,3.2C10.1,27.8,13,29,13,31c0,3.4,2,7,2,9v1.8l2,0.9c0,0,0-1.3,0-1.7  c0-3,3.4-5,5-5c0,0,2-0.2,2-3.5c0-0.4-0.4-1.5-1-1.5c0,0-0.5,2-4.3,2c-2,0-3.8-1.1-3.8-5h-1.9c-0.6,0-1.1-0.8-1.1-1.3S11.8,26,11,26  c-0.6,0-1-0.3-1-0.8c0-0.4,0-0.9,0-1c0-0.6,0.5-1.3,2-1.3c0-1.8-2-3-2-4.5c0-1.4-1-3.5-3-4.5l-0.3-0.1c0,0-2.1,3.6-2.5,7.5L6,24z"/>
<path style="fill:#BBDEFB;" d="M24,45C12.4,45,3,35.6,3,24C3,12.4,12.4,3,24,3c11.6,0,21,9.4,21,21C45,35.6,35.6,45,24,45z M24,6  C14.1,6,6,14.1,6,24c0,9.9,8.1,18,18,18c9.9,0,18-8.1,18-18C42,14.1,33.9,6,24,6z"/>
</svg>
