<?xml version="1.0" encoding="UTF-8"?>
<svg xmlns="http://www.w3.org/2000/svg" xmlns:xlink="http://www.w3.org/1999/xlink" viewBox="0 0 48 48" version="1.1">
<g id="surface1">
<path style=" fill:#3F51B5;" d="M 6 15 L 8 15 L 14 24 L 8 23 Z "/>
<path style=" fill:#3F51B5;" d="M 6 33 L 8 33 L 14 24 L 8 25 Z "/>
<path style=" fill:#9FA8DA;" d="M 18 6 L 22 6 L 33 21 L 23 21 Z "/>
<path style=" fill:#9FA8DA;" d="M 37 27 C 35 27 25 27 22 27 C 15 27 8 25 8 25 L 8 23 C 8 23 15 21 22 21 C 25 21 35.160156 21 37 21 C 39 21 42 21.75 42 24 C 42 26.25 39 27 37 27 Z "/>
<path style=" fill:#9FA8DA;" d="M 18 42 L 22 42 L 33 27 L 23 27 Z "/>
<path style=" fill:#7986CB;" d="M 18 6 L 20 6 L 25 21 L 23 21 Z "/>
<path style=" fill:#7986CB;" d="M 18 42 L 20 42 L 25 27 L 23 27 Z "/>
</g>
</svg>
