<?xml version="1.0" encoding="UTF-8"?>
<svg xmlns="http://www.w3.org/2000/svg" xmlns:xlink="http://www.w3.org/1999/xlink" viewBox="0 0 48 48" version="1.1">
<g id="surface1">
<path style=" fill:#FFAB91;" d="M 40 24 C 40 32.835938 32.835938 40 24 40 C 15.164063 40 8 32.835938 8 24 C 8 15.164063 15.164063 8 24 8 C 32.835938 8 40 15.164063 40 24 Z "/>
<path style=" fill:#FF8A65;" d="M 8.101563 25.699219 C 8.199219 28.199219 12.199219 32.199219 17.898438 35.398438 C 23.601563 38.5 29.199219 39.699219 31.398438 38.398438 C 29.300781 39.5 27.101563 40.101563 24.699219 40.199219 C 22.398438 39.699219 19.699219 38.601563 17 37.101563 C 14.300781 35.601563 11.898438 33.898438 10.199219 32.300781 C 9 30.300781 8.300781 28 8.101563 25.699219 Z "/>
<path style=" fill:#FF8A65;" d="M 22.898438 26.199219 C 15.800781 22.300781 10.898438 17.300781 11.398438 14.398438 C 11.699219 14 12.101563 13.5 12.5 13.101563 C 12.898438 16.101563 17.5 20.601563 24 24.199219 C 30.5 27.800781 36.898438 29.101563 39.601563 27.800781 C 39.5 28.300781 39.300781 28.898438 39.101563 29.398438 C 36.898438 31.300781 30 30 22.898438 26.199219 Z "/>
<path style=" fill:#FF8A65;" d="M 39.601563 20.601563 C 38.199219 22.398438 32.800781 21.5 27.199219 18.398438 C 21.601563 15.300781 17.800781 11.300781 18.601563 9.199219 C 18.898438 9.101563 19.101563 9 19.398438 8.898438 C 20 11.101563 23.398438 14.398438 28 16.898438 C 32.699219 19.398438 37.199219 20.5 39.398438 19.800781 C 39.398438 20 39.5 20.300781 39.601563 20.601563 Z "/>
<path style=" fill:#FF5722;" d="M 17.699219 34 C 30.101563 40.800781 42.800781 41.800781 46.101563 36.101563 C 48.601563 32.199219 45.699219 26.101563 39.5 20.5 C 39.699219 21.601563 39.898438 22.800781 39.898438 23.898438 C 39.898438 23.898438 39.898438 24.101563 39.898438 24.300781 C 41 26.398438 41.101563 28.398438 40.300781 29.800781 C 38.199219 33.699219 29.601563 33 21.300781 28.398438 C 13 23.699219 8.101563 16.898438 10.398438 13.199219 C 11.300781 12 12.898438 11.101563 15 10.898438 C 16.101563 10.199219 17.101563 9.699219 18.398438 9.101563 C 10.601563 7 4.199219 7.898438 1.800781 11.601563 C -1.5 17.300781 5.601563 27.398438 17.699219 34 Z "/>
</g>
</svg>
