<?xml version="1.0" encoding="UTF-8"?>
<svg xmlns="http://www.w3.org/2000/svg" xmlns:xlink="http://www.w3.org/1999/xlink" viewBox="0 0 48 48" version="1.1">
<g id="surface1">
<path style=" fill:#546E7A;" d="M 16 44 L 16 40.5 C 16 39.101563 17.101563 38 18.5 38 C 19.898438 38 21 39.101563 21 40.5 L 21 44 Z M 32 44 L 32 40.5 C 32 39.101563 30.898438 38 29.5 38 C 28.101563 38 27 39.101563 27 40.5 L 27 44 Z "/>
<path style=" fill:#37474F;" d="M 29.5 38 C 28.101563 38 27 39.101563 27 40.5 L 27 43 L 32 41.300781 L 32 40.5 C 32 39.101563 30.898438 38 29.5 38 Z "/>
<path style=" fill:#37474F;" d="M 18.5 38 C 17.101563 38 16 39.101563 16 40.5 L 16 41.300781 L 21 43 L 21 40.5 C 21 39.101563 19.898438 38 18.5 38 Z "/>
<path style=" fill:#7986CB;" d="M 42 36 L 24 42 L 6 36 L 6 28 L 42 28 Z M 7 13 L 5 13 L 5 24 L 7 24 Z M 4 23 L 4 29 C 4.601563 29.300781 5.300781 29.601563 6 29.601563 C 6.699219 29.601563 7.398438 29.398438 8 29 L 8 23 Z M 43 13 L 41 13 L 41 24 L 43 24 Z M 40 23 L 40 29 C 40.601563 29.300781 41.300781 29.601563 42 29.601563 C 42.699219 29.601563 43.398438 29.398438 44 29 L 44 23 Z M 28 15 C 28 10 24 4 24 4 C 24 4 20 10.199219 20 15 C 20 19.800781 20 26 20 26 L 28 26 C 28 26 28 20 28 15 Z "/>
<path style=" fill:#C5CAE9;" d="M 6 21 C 7.101563 21 8 21.898438 8 23 C 8 24.101563 7.101563 25 6 25 C 4.898438 25 4 24.101563 4 23 C 4 21.898438 4.898438 21 6 21 Z M 40 23 C 40 24.101563 40.898438 25 42 25 C 43.101563 25 44 24.101563 44 23 C 44 21.898438 43.101563 21 42 21 C 40.898438 21 40 21.898438 40 23 Z M 40 26.398438 L 40 37 C 40 38.101563 40.898438 39 42 39 C 43.101563 39 44 38.101563 44 37 L 44 26.398438 C 43.398438 26.699219 42.699219 27 42 27 C 41.300781 27 40.601563 26.800781 40 26.398438 Z M 4 26.398438 L 4 37 C 4 38.101563 4.898438 39 6 39 C 7.101563 39 8 38.101563 8 37 L 8 26.398438 C 7.398438 26.800781 6.699219 27 6 27 C 5.300781 27 4.601563 26.800781 4 26.398438 Z M 30.699219 25 L 25 25 L 25 19 C 25 18.5 24.5 18 24 18 C 23.5 18 23 18.5 23 19 L 23 25 L 17.300781 25 C 16.601563 25 16 25.601563 16 26.300781 L 16 31.699219 C 16 32.5 16.398438 33.199219 17.199219 33.601563 L 24 37 L 30.800781 33.601563 C 31.5 33.199219 32 32.5 32 31.699219 L 32 26.300781 C 32 25.601563 31.398438 25 30.699219 25 Z "/>
<path style=" fill:#1A237E;" d="M 28 31.300781 C 28 33.5 20 33.5 20 31.300781 C 20 29.101563 21.800781 27.300781 24 27.300781 C 26.199219 27.300781 28 29.101563 28 31.300781 Z "/>
<path style=" fill:#FF3D00;" d="M 7 12 L 7 14 L 5 14 L 5 12 C 5 11.398438 5.398438 11 6 11 C 6.601563 11 7 11.398438 7 12 Z M 42 11 C 41.398438 11 41 11.398438 41 12 L 41 14 L 43 14 L 43 12 C 43 11.398438 42.601563 11 42 11 Z "/>
</g>
</svg>
